<svg width="1662" height="617" viewBox="0 0 1662 617" fill="none" xmlns="http://www.w3.org/2000/svg">
<path d="M349 318.793C386.977 257.041 500.667 250.793 552.5 258.793C604.333 250.793 802.8 251.593 830 318.793C864 402.793 1190 230.792 1236.5 376.793C1283 522.793 1352.5 362.792 1377 460.792C1401.5 558.792 1469.94 475.395 1528.5 412.793C1659 273.293 1667 376.29 1660 537.79C1654.4 666.99 1510.33 607.957 1439 562.29L20 576.79L0 318.793C28.5088 289.971 105.5 536.721 186 376.793C266.5 216.865 304.562 391.053 349 318.793Z" fill="url(#paint0_linear)"/>
<path d="M1314.5 298.293C1345.7 310.693 1348 340.293 1334.5 361.793C1323 376.793 1321.78 380.953 1300.18 398.953C1273.18 421.453 1280.18 347.453 1275.18 333.953C1270.18 320.453 1275.5 282.793 1314.5 298.293Z" fill="url(#paint1_linear)"/>
<path d="M341.4 185.569C372.6 197.969 373.5 224.793 355.339 236.181C338 248.293 325 260.069 302.061 260.069C266.915 260.069 228.839 236.181 291.839 207.181C304.916 201.161 302.4 170.069 341.4 185.569Z" fill="url(#paint2_linear)"/>
<path d="M130.439 4.2928C99.2387 16.6928 104 45.7932 124.5 66.2932C134 76.2932 143.9 82.7932 165.5 100.793C192.5 123.293 188.561 75.7935 183.5 47.2932C178.311 18.0761 169.439 -11.2072 130.439 4.2928Z" fill="url(#paint3_linear)"/>
<defs>
<linearGradient id="paint0_linear" x1="782.5" y1="-73.7068" x2="782.5" y2="543.793" gradientUnits="userSpaceOnUse">
<stop stop-color="#8482FF"/>
<stop offset="0.0666667" stop-color="#8481FE"/>
<stop offset="0.133333" stop-color="#827FFA"/>
<stop offset="0.2" stop-color="#7E7CF3"/>
<stop offset="0.266667" stop-color="#7A78E9"/>
<stop offset="0.333333" stop-color="#7473DD"/>
<stop offset="0.4" stop-color="#6D6CCF"/>
<stop offset="0.466667" stop-color="#6565BE"/>
<stop offset="0.533333" stop-color="#5D5EAE"/>
<stop offset="0.6" stop-color="#55569D"/>
<stop offset="0.666667" stop-color="#4E508F"/>
<stop offset="0.733333" stop-color="#484B83"/>
<stop offset="0.8" stop-color="#444679"/>
<stop offset="0.866667" stop-color="#404372"/>
<stop offset="0.933333" stop-color="#3F426E"/>
<stop offset="1" stop-color="#3E416D"/>
</linearGradient>
<linearGradient id="paint1_linear" x1="782.5" y1="-73.7068" x2="782.5" y2="543.793" gradientUnits="userSpaceOnUse">
<stop stop-color="#8482FF"/>
<stop offset="0.0666667" stop-color="#8481FE"/>
<stop offset="0.133333" stop-color="#827FFA"/>
<stop offset="0.2" stop-color="#7E7CF3"/>
<stop offset="0.266667" stop-color="#7A78E9"/>
<stop offset="0.333333" stop-color="#7473DD"/>
<stop offset="0.4" stop-color="#6D6CCF"/>
<stop offset="0.466667" stop-color="#6565BE"/>
<stop offset="0.533333" stop-color="#5D5EAE"/>
<stop offset="0.6" stop-color="#55569D"/>
<stop offset="0.666667" stop-color="#4E508F"/>
<stop offset="0.733333" stop-color="#484B83"/>
<stop offset="0.8" stop-color="#444679"/>
<stop offset="0.866667" stop-color="#404372"/>
<stop offset="0.933333" stop-color="#3F426E"/>
<stop offset="1" stop-color="#3E416D"/>
</linearGradient>
<linearGradient id="paint2_linear" x1="782.5" y1="-73.7068" x2="782.5" y2="543.793" gradientUnits="userSpaceOnUse">
<stop stop-color="#8482FF"/>
<stop offset="0.0666667" stop-color="#8481FE"/>
<stop offset="0.133333" stop-color="#827FFA"/>
<stop offset="0.2" stop-color="#7E7CF3"/>
<stop offset="0.266667" stop-color="#7A78E9"/>
<stop offset="0.333333" stop-color="#7473DD"/>
<stop offset="0.4" stop-color="#6D6CCF"/>
<stop offset="0.466667" stop-color="#6565BE"/>
<stop offset="0.533333" stop-color="#5D5EAE"/>
<stop offset="0.6" stop-color="#55569D"/>
<stop offset="0.666667" stop-color="#4E508F"/>
<stop offset="0.733333" stop-color="#484B83"/>
<stop offset="0.8" stop-color="#444679"/>
<stop offset="0.866667" stop-color="#404372"/>
<stop offset="0.933333" stop-color="#3F426E"/>
<stop offset="1" stop-color="#3E416D"/>
</linearGradient>
<linearGradient id="paint3_linear" x1="782.5" y1="-73.7068" x2="782.5" y2="543.793" gradientUnits="userSpaceOnUse">
<stop stop-color="#8482FF"/>
<stop offset="0.0666667" stop-color="#8481FE"/>
<stop offset="0.133333" stop-color="#827FFA"/>
<stop offset="0.2" stop-color="#7E7CF3"/>
<stop offset="0.266667" stop-color="#7A78E9"/>
<stop offset="0.333333" stop-color="#7473DD"/>
<stop offset="0.4" stop-color="#6D6CCF"/>
<stop offset="0.466667" stop-color="#6565BE"/>
<stop offset="0.533333" stop-color="#5D5EAE"/>
<stop offset="0.6" stop-color="#55569D"/>
<stop offset="0.666667" stop-color="#4E508F"/>
<stop offset="0.733333" stop-color="#484B83"/>
<stop offset="0.8" stop-color="#444679"/>
<stop offset="0.866667" stop-color="#404372"/>
<stop offset="0.933333" stop-color="#3F426E"/>
<stop offset="1" stop-color="#3E416D"/>
</linearGradient>
</defs>
</svg>
