<svg width="28" height="27" fill="none" xmlns="http://www.w3.org/2000/svg"><path d="m26.285 15.847 1.585-8.72a1.94 1.94 0 0 0-1.906-2.283H5.652L5.061 1.59A1.937 1.937 0 0 0 3.155 0H.969a.969.969 0 0 0 0 1.938h2.185l3.234 17.784c.029.157.077.31.144.455a3.39 3.39 0 1 0 5.25 1.136h8.405a3.39 3.39 0 1 0 3.063-1.938H8.294l-.352-1.938h16.437a1.936 1.936 0 0 0 1.906-1.59Zm-16.113 6.919a1.453 1.453 0 1 1-2.905 0 1.453 1.453 0 0 1 2.905 0Zm14.531 0a1.453 1.453 0 1 1-2.905 0 1.453 1.453 0 0 1 2.905 0ZM6.005 6.78h19.96L24.378 15.5H7.59L6.006 6.781Z" fill="#3E416D"/></svg>