<svg width="390" height="641" viewBox="0 0 390 641" fill="none" xmlns="http://www.w3.org/2000/svg">
<g filter="url(#filter0_d)">
<path d="M311.478 302.909C311.478 302.909 322.502 304.602 328.199 299.19C331.114 296.425 338.195 290.672 346.752 287.783C355.31 284.893 344.968 298.789 345.174 300.01C345.439 301.643 361.582 292.689 363.57 296.156C365.558 299.623 367.195 308.687 356.1 316.623C345.005 324.56 311.558 334.403 302.661 332.539C293.765 330.676 299.263 310.269 311.478 302.909Z" fill="#E9E9E9"/>
<path d="M343.63 300.811L336.98 306.012" stroke="#3E416D" stroke-width="0.916209" stroke-miterlimit="10" stroke-linecap="round"/>
<path d="M87.6292 212.366C87.6292 212.366 85.7229 207.243 86.163 198.183C86.5914 189.555 85.9439 173.206 80.7225 172.73C78.2521 172.505 72.8118 174.201 71.8399 189.618C71.8399 189.618 70.1075 195.749 60.3954 183.158C50.6832 170.567 46.3794 170.923 42.9672 173.079C36.9179 176.913 26.6939 187.252 32.9311 204.2C39.1683 221.148 63.8914 236.579 63.8914 236.579L87.6292 212.366Z" fill="#E9E9E9"/>
<path d="M43.0303 175.951C43.0303 175.951 50.1917 186.399 54.5298 189.372" stroke="#3E416D" stroke-width="0.916209" stroke-miterlimit="10" stroke-linecap="round"/>
<path d="M39.1099 181.786C39.1099 181.786 46.2645 192.233 50.6094 195.207" stroke="#3E416D" stroke-width="0.916209" stroke-miterlimit="10" stroke-linecap="round"/>
<path d="M35.4917 188.838C35.4917 188.838 42.6475 199.271 46.9912 202.259" stroke="#3E416D" stroke-width="0.916209" stroke-miterlimit="10" stroke-linecap="round"/>
<path d="M34.6357 198.224C36.888 201.479 39.3081 204.616 41.8861 207.621" stroke="#3E416D" stroke-width="0.916209" stroke-miterlimit="10" stroke-linecap="round"/>
<path d="M82.9843 442.669L162.656 396.512C165.112 395.089 167.855 394.227 170.687 393.989C173.519 393.75 176.369 394.141 179.032 395.133L292.489 437.287C294.448 438.012 296.181 439.236 297.516 440.837C298.851 442.438 299.741 444.36 300.097 446.41C300.453 448.461 300.262 450.568 299.543 452.521C298.825 454.474 297.604 456.205 296.003 457.54L192.093 544.594C188.637 547.498 184.221 549.018 179.701 548.86C175.181 548.701 170.88 546.876 167.634 543.737L80.8827 459.578C79.6982 458.425 78.797 457.014 78.2495 455.457C77.702 453.9 77.5229 452.239 77.7264 450.602C77.9298 448.965 78.5102 447.397 79.4223 446.021C80.3343 444.645 81.5534 443.498 82.9843 442.669Z" fill="#3E416D"/>
<path d="M300.926 436.249L300.052 451.428L292.045 457.055L300.926 436.249Z" fill="#3E416D"/>
<path d="M78.5962 441.08L77.5595 452.443L88.4585 459.438L78.5962 441.08Z" fill="#3E416D"/>
<path d="M83.886 432.827L163.558 386.663C166.014 385.24 168.757 384.378 171.589 384.14C174.421 383.901 177.271 384.292 179.934 385.284L293.392 427.438C295.35 428.162 297.083 429.386 298.418 430.987C299.753 432.589 300.643 434.51 300.999 436.561C301.355 438.611 301.164 440.719 300.445 442.672C299.727 444.625 298.506 446.356 296.905 447.691L192.995 534.745C189.535 537.643 185.117 539.157 180.598 538.992C176.079 538.828 171.781 536.996 168.539 533.854L81.785 449.729C80.6018 448.575 79.7017 447.166 79.1549 445.609C78.6081 444.053 78.4295 442.392 78.6328 440.756C78.8361 439.121 79.416 437.554 80.3272 436.178C81.2384 434.803 82.4563 433.656 83.886 432.827Z" fill="#8482FF"/>
<path d="M278.17 448.05L240.815 479.331L240.114 474.456C239.073 466.588 235.859 441.606 233.447 415.556L275.201 431.05C276.847 431.656 278.304 432.682 279.427 434.025C280.55 435.367 281.299 436.98 281.6 438.702C281.9 440.424 281.742 442.193 281.14 443.834C280.538 445.474 279.514 446.928 278.17 448.05Z" fill="#E9E9E9"/>
<path d="M139.567 488.184L141.392 492.158L97.6822 449.77C96.6892 448.802 95.9338 447.62 95.4752 446.314C95.0165 445.008 94.867 443.615 95.0383 442.242C95.2096 440.87 95.6971 439.556 96.4627 438.402C97.2283 437.249 98.2512 436.288 99.4517 435.594L122.939 421.99C125.986 444.602 131.563 466.805 139.567 488.184Z" fill="#E9E9E9"/>
<path d="M223.62 127.564C223.62 127.564 245.381 125.928 245.841 165.738C246.193 196.287 248.651 201.261 249.283 204.164C249.916 207.067 267.096 230.299 259.563 252.211C259.563 252.211 248.41 280.061 221.413 282.444C194.416 284.826 197.17 220.009 197.17 220.009C197.17 220.009 201.177 136.157 223.62 127.564Z" fill="#8482FF"/>
<path d="M50.8048 382.747C63.7456 383.928 75.1894 374.435 76.3655 361.545C77.5415 348.655 68.0043 337.249 55.0636 336.068C42.1229 334.887 30.679 344.38 29.503 357.27C28.3269 370.16 37.8641 381.567 50.8048 382.747Z" fill="#8482FF"/>
<path d="M61.2838 359.722L51.2004 370.487C51.0308 370.672 50.8134 370.808 50.5718 370.878C50.3302 370.949 50.0738 370.952 49.8305 370.887C49.5872 370.822 49.3664 370.692 49.1921 370.511C49.0179 370.33 48.897 370.104 48.8425 369.86L45.1088 353.834C45.0499 353.59 45.0594 353.335 45.1362 353.096C45.213 352.858 45.3542 352.645 45.5443 352.48C45.7344 352.316 45.9662 352.207 46.2143 352.165C46.4624 352.123 46.7174 352.15 46.9514 352.243L60.7643 357.476C60.9813 357.553 61.1753 357.684 61.3284 357.855C61.4816 358.027 61.589 358.234 61.6407 358.458C61.6925 358.682 61.6869 358.915 61.6245 359.136C61.5622 359.357 61.445 359.559 61.2838 359.722Z" fill="#E9E9E9"/>
<path d="M178.486 78.7202C169.15 95.4083 147.979 101.365 131.184 91.9693C114.389 82.5733 108.387 61.4151 117.723 44.727C127.059 28.0388 148.23 22.0819 165.025 31.4778C181.82 40.8738 187.822 62.032 178.486 78.7202Z" stroke="#8482FF" stroke-width="10"/>
<path d="M162.653 66.4096L139.655 76.1051C139.265 76.2748 138.836 76.3343 138.414 76.277C137.992 76.2197 137.594 76.0478 137.262 75.7802C136.931 75.5126 136.679 75.1595 136.535 74.7594C136.39 74.3594 136.358 73.9278 136.443 73.5117L141.706 46.1709C141.783 45.7535 141.973 45.3655 142.256 45.0494C142.539 44.7333 142.904 44.5011 143.311 44.3783C143.718 44.2554 144.151 44.2465 144.564 44.3525C144.976 44.4586 145.352 44.6756 145.65 44.9798L163.397 62.579C163.679 62.8481 163.889 63.1835 164.007 63.5543C164.126 63.9251 164.149 64.3193 164.075 64.7008C164.001 65.0823 163.832 65.4387 163.583 65.7373C163.335 66.0359 163.015 66.2671 162.653 66.4096Z" fill="#E9E9E9"/>
<path d="M240.83 479.332L190.981 521.096C188.079 523.527 184.372 524.797 180.582 524.658C176.791 524.519 173.186 522.982 170.467 520.345L141.394 492.158L139.569 488.184C131.565 466.805 125.988 444.602 122.941 421.99C116.622 376.442 121.435 342.446 121.435 342.446L231.235 352.615C229.624 365.651 231.174 391.099 233.462 415.557C235.874 441.607 239.087 466.588 240.129 474.457L240.83 479.332Z" fill="#FF9882"/>
<path d="M159.481 395.769L168.98 400.416C168.98 400.416 166.438 431.533 195.44 514.568" stroke="#E9E9E9" stroke-width="0.916209" stroke-miterlimit="10" stroke-linecap="round"/>
<path d="M187.017 204.229C187.017 204.229 157.44 203.208 144.552 223.456C128.755 248.133 112.913 243.512 92.8325 214.71C92.0914 213.643 90.9969 212.87 89.7411 212.526C88.4853 212.183 87.1485 212.291 85.9655 212.832C77.1815 216.842 58.7375 227.277 65.583 241.49C74.4599 259.909 102.8 299.301 129.966 299.676C129.966 299.676 122.353 329.65 121.489 342.451C121.489 342.451 136.178 364.851 177.587 367.722C218.995 370.592 231.289 352.62 231.289 352.62C231.289 352.62 234.592 321.407 236.694 313.42C236.694 313.42 262.041 336.153 302.715 332.558C302.715 332.558 299.052 313.714 311.533 302.914C311.533 302.914 272.991 288.435 269.183 281.997C265.375 275.56 256.427 240.825 254.505 235.577C251.992 228.701 243.796 216.812 226.585 209.88C209.373 202.949 187.017 204.229 187.017 204.229Z" fill="#FFBEAF"/>
<path d="M150.601 228.242C150.601 228.242 139.14 253.425 130.795 295.133" stroke="#E9E9E9" stroke-width="0.916209" stroke-miterlimit="10" stroke-linecap="round"/>
<path d="M213.574 250.228C213.574 250.228 219.058 277.217 223.231 292.99C224.589 298.122 225.808 302.066 226.654 303.507C230.1 309.375 236.632 313.414 236.632 313.414" stroke="#E9E9E9" stroke-width="0.916209" stroke-miterlimit="10" stroke-linecap="round"/>
<path d="M304.354 300.135C304.354 300.135 292.065 305.131 294.904 329.9" stroke="#E9E9E9" stroke-width="0.916209" stroke-miterlimit="10" stroke-linecap="round"/>
<path d="M95.6038 218.599C95.6038 218.599 80.2472 224.538 71.9132 237.304" stroke="#E9E9E9" stroke-width="0.916209" stroke-miterlimit="10" stroke-linecap="round"/>
<path d="M185.995 131.411C185.995 131.411 172.656 136.037 179.836 157.469L192.978 138.599L185.995 131.411Z" fill="#8482FF"/>
<path d="M223.58 175.673C223.58 175.673 213.998 208.244 213.752 210.937C213.506 213.629 195.12 216.241 185.764 207.009C185.764 207.009 195.27 186.012 197.093 180.707C198.915 175.403 214.539 170.766 223.58 175.673Z" fill="#E9E9E9"/>
<path d="M223.578 175.674L194.835 186.378C193.594 189.317 192.075 192.814 190.6 196.116C190.6 196.116 214.538 202.156 223.578 175.674Z" fill="#3E416D"/>
<path d="M228.392 163.075C227.098 177.26 214.789 191.615 201.329 190.387C184.946 188.893 176.823 178.398 179.648 158.627C181.659 144.604 192.905 133.952 206.365 135.18C219.826 136.408 229.686 148.896 228.392 163.075Z" fill="#E9E9E9"/>
<path d="M217.031 162.581C202.403 162.655 184.247 149.733 185.995 131.411C187.742 113.088 204.673 113.945 207.226 114.178C209.778 114.411 231.774 119.799 236.585 142.631C241.395 165.463 223.161 162.549 217.031 162.581Z" fill="#8482FF"/>
<path d="M229.072 174.262C234.488 171.773 237.637 167.08 236.107 163.782C234.577 160.483 228.946 159.827 223.531 162.316C218.116 164.806 214.967 169.498 216.497 172.797C218.027 176.096 223.657 176.752 229.072 174.262Z" fill="#E9E9E9"/>
<path d="M201.841 180.543C201.841 180.543 207.394 181.771 210.134 177.079" stroke="#3E416D" stroke-width="0.916209" stroke-miterlimit="10" stroke-linecap="round"/>
<path d="M224.139 169.23L232.09 166.635" stroke="#3E416D" stroke-width="0.916209" stroke-miterlimit="10" stroke-linecap="round"/>
<path d="M192.659 162.811L190.466 169.381C190.402 169.571 190.379 169.773 190.397 169.973C190.416 170.173 190.476 170.367 190.573 170.543C190.67 170.719 190.803 170.873 190.963 170.996C191.123 171.118 191.306 171.207 191.502 171.255L193.1 171.662" stroke="#3E416D" stroke-width="0.916209" stroke-miterlimit="10" stroke-linecap="round"/>
<path d="M188.508 159.28C188.92 157.358 188.447 155.628 187.452 155.416C186.457 155.204 185.317 156.591 184.906 158.513C184.495 160.435 184.968 162.165 185.962 162.377C186.957 162.589 188.097 161.203 188.508 159.28Z" fill="#3E416D"/>
<path d="M202.376 162.979C202.788 161.057 202.315 159.327 201.32 159.115C200.325 158.903 199.186 160.289 198.774 162.212C198.363 164.134 198.836 165.864 199.83 166.076C200.825 166.288 201.965 164.901 202.376 162.979Z" fill="#3E416D"/>
</g>
<defs>
<filter id="filter0_d" x="13.4048" y="22.0222" width="367.601" height="618.849" filterUnits="userSpaceOnUse" color-interpolation-filters="sRGB">
<feFlood flood-opacity="0" result="BackgroundImageFix"/>
<feColorMatrix in="SourceAlpha" type="matrix" values="0 0 0 0 0 0 0 0 0 0 0 0 0 0 0 0 0 0 127 0" result="hardAlpha"/>
<feOffset dy="76"/>
<feGaussianBlur stdDeviation="8"/>
<feColorMatrix type="matrix" values="0 0 0 0 0 0 0 0 0 0 0 0 0 0 0 0 0 0 0.1 0"/>
<feBlend mode="normal" in2="BackgroundImageFix" result="effect1_dropShadow"/>
<feBlend mode="normal" in="SourceGraphic" in2="effect1_dropShadow" result="shape"/>
</filter>
</defs>
</svg>
