<svg width="32" height="33" fill="none" xmlns="http://www.w3.org/2000/svg"><path d="M15.998.246c-4.349 0-4.891.021-6.593.093-1.709.084-2.865.35-3.885.745a7.847 7.847 0 0 0-2.833 1.85A7.757 7.757 0 0 0 .838 5.765C.442 6.786.177 7.942.093 9.651.016 11.354 0 11.895 0 16.244c0 4.35.021 4.891.093 6.593.084 1.704.349 2.865.745 3.885a7.848 7.848 0 0 0 1.849 2.833 7.757 7.757 0 0 0 2.833 1.85c1.02.39 2.181.66 3.885.744 1.703.077 2.244.093 6.593.093s4.891-.02 6.593-.093c1.704-.084 2.865-.355 3.885-.745a7.847 7.847 0 0 0 2.833-1.849 7.716 7.716 0 0 0 1.849-2.833c.391-1.02.661-2.18.745-3.885.077-1.703.093-2.244.093-6.593s-.021-4.89-.093-6.593c-.084-1.704-.355-2.87-.745-3.885a7.847 7.847 0 0 0-1.849-2.833 7.716 7.716 0 0 0-2.833-1.849c-1.02-.396-2.181-.66-3.885-.745-1.703-.077-2.244-.093-6.593-.093Zm0 2.88c4.271 0 4.781.021 6.469.093 1.557.073 2.405.333 2.968.553a4.99 4.99 0 0 1 1.844 1.197c.53.516.938 1.144 1.192 1.84.22.562.48 1.41.553 2.967.072 1.688.093 2.2.093 6.47s-.021 4.78-.099 6.468c-.084 1.557-.344 2.405-.563 2.968-.303.751-.641 1.276-1.199 1.844-.52.528-1.15.935-1.844 1.192-.556.22-1.416.48-2.979.553-1.697.072-2.197.093-6.479.093s-4.781-.02-6.48-.099c-1.557-.084-2.416-.344-2.979-.563-.76-.303-1.281-.64-1.839-1.199-.563-.563-.921-1.099-1.197-1.844-.224-.556-.48-1.416-.563-2.979-.057-1.677-.084-2.197-.084-6.459 0-4.26.027-4.78.084-6.479.083-1.563.339-2.42.563-2.979.276-.76.635-1.28 1.197-1.844.557-.557 1.079-.917 1.839-1.199.563-.219 1.401-.479 2.964-.557 1.697-.06 2.197-.083 6.473-.083l.066.046Zm0 4.907a8.21 8.21 0 0 0-8.213 8.213 8.21 8.21 0 0 0 8.213 8.213 8.21 8.21 0 0 0 8.213-8.213 8.21 8.21 0 0 0-8.213-8.213Zm0 13.546a5.33 5.33 0 0 1-5.333-5.333 5.33 5.33 0 0 1 5.333-5.333 5.33 5.33 0 0 1 5.333 5.333 5.33 5.33 0 0 1-5.333 5.333ZM26.462 7.705a1.923 1.923 0 0 1-3.28 1.359 1.918 1.918 0 0 1 1.357-3.276c1.057 0 1.923.86 1.923 1.917Z" fill="#8482FF"/></svg>