<svg width="341" height="526" viewBox="0 0 341 526" fill="none" xmlns="http://www.w3.org/2000/svg">
<g filter="url(#filter0_d)">
<path d="M144.378 420.565C144.378 420.565 148.534 445.379 143.388 467.429L216.073 507.711C216.073 507.711 219.556 492.522 210.157 476.7C200.758 460.877 196.132 448.479 197.54 431.547L144.378 420.565Z" fill="#E9E9E9"/>
<path d="M184.664 457.894L198.535 460.056" stroke="#E9E9E9" stroke-width="1.34399" stroke-miterlimit="10" stroke-linecap="round"/>
<path d="M241.987 387.999C241.987 387.999 260.674 416.03 275.827 418.225L326.109 363.01C326.109 363.01 318.473 350.559 296.911 360.791C296.911 360.791 291.609 364.043 283.167 361.44C279.165 360.212 274.9 357.327 270.488 351.771L241.987 387.999Z" fill="#E9E9E9"/>
<path d="M283.875 377.561L287.465 363.983" stroke="#E9E9E9" stroke-width="1.34399" stroke-miterlimit="10" stroke-linecap="round"/>
<path d="M219.626 181.467L171.507 194.311C171.121 194.413 170.718 194.428 170.325 194.355C169.933 194.282 169.561 194.123 169.237 193.89C168.913 193.656 168.645 193.354 168.452 193.005C168.258 192.655 168.145 192.268 168.119 191.869L172.253 158.132C172.397 156.954 172.896 155.847 173.684 154.959C174.472 154.072 175.511 153.444 176.664 153.161L225.655 141.092C226.029 140.987 226.423 140.978 226.801 141.068C227.179 141.157 227.528 141.342 227.815 141.603C228.102 141.865 228.318 142.196 228.442 142.564C228.566 142.932 228.594 143.326 228.523 143.708L222.055 178.847C221.941 179.469 221.652 180.046 221.222 180.51C220.792 180.974 220.238 181.306 219.626 181.467Z" fill="#BEDDFA"/>
<path d="M220.128 98.2608C231.374 97.0347 239.497 86.924 238.271 75.6779C237.045 64.4319 226.934 56.3091 215.688 57.5353C204.442 58.7614 196.319 68.8721 197.546 80.1181C198.772 91.3642 208.882 99.4869 220.128 98.2608Z" fill="#8482FF"/>
<path d="M224.457 80.6789L213.622 86.4053C213.4 86.526 213.15 86.5834 212.898 86.5713C212.647 86.5592 212.403 86.4781 212.194 86.3368C211.986 86.1955 211.82 85.9995 211.715 85.7702C211.61 85.5409 211.571 85.2873 211.601 85.037L213.047 71.4375C213.067 71.1851 213.156 70.9431 213.305 70.7383C213.453 70.5335 213.656 70.3737 213.89 70.2768C214.124 70.1798 214.38 70.1493 214.63 70.1888C214.88 70.2283 215.114 70.3361 215.307 70.5003L224.697 78.3802C224.876 78.524 225.017 78.7106 225.106 78.9228C225.194 79.1351 225.228 79.3663 225.205 79.5951C225.181 79.8239 225.1 80.0431 224.969 80.2325C224.838 80.4218 224.662 80.5754 224.457 80.6789Z" fill="#E9E9E9"/>
<path d="M137.576 51.9882L151.948 44.9367" stroke="#DADEEB" stroke-width="1.34399" stroke-miterlimit="10" stroke-linecap="round"/>
<path d="M136.854 58.7261L152.866 58.8591" stroke="#DADEEB" stroke-width="1.34399" stroke-miterlimit="10" stroke-linecap="round"/>
<path d="M274.566 348.943C240.711 300.138 200.558 269.218 180.419 253.731C177.321 251.347 173.512 248.413 172.191 247.258C162.524 239.616 159.872 223.596 159.872 223.596L118.061 241.707C118.052 241.662 118.047 241.617 118.046 241.571C118.052 241.625 118.056 241.666 118.027 241.711L117.696 241.851L58.22 233.139C57.41 238.38 51.6808 285.236 86.09 316.754C93.4499 323.501 106.435 341.357 118.844 366.038C131.187 390.547 138.035 406.219 139.907 423.394L208.413 437.69C204.819 404.733 181.905 356.939 172.837 338.897C167.056 327.332 160.633 316.098 153.599 305.249C175.715 322.717 210.051 352.937 235.449 400.316C235.473 400.286 277.525 353.214 274.566 348.943Z" fill="#6562DB"/>
<path d="M142.191 409.447L192.962 420.614" stroke="#E6E6E6" stroke-width="1.34399" stroke-miterlimit="10" stroke-linecap="round"/>
<path d="M267.571 339.213C267.571 339.213 252.485 364.868 239.695 377.569" stroke="#E6E6E6" stroke-width="1.34399" stroke-miterlimit="10" stroke-linecap="round"/>
<path d="M151.595 302.145C151.595 302.145 140.812 286.169 133.894 279.167L138.571 269.546" stroke="#E6E6E6" stroke-width="1.34399" stroke-miterlimit="10" stroke-linecap="round"/>
<path d="M117.449 112.377C117.449 112.377 126.679 117.021 157.631 165.363C163.583 174.653 171.653 181.834 198.021 183.18L176.317 214.406C176.317 214.406 135.558 207.204 130.101 188.513C124.644 169.822 117.449 112.377 117.449 112.377Z" fill="#8482FF"/>
<path d="M143.322 159.684C138.734 138.578 127.937 118.425 113.782 109.855C104.42 104.19 95.8127 103.933 84.2012 105.199C55.6401 108.313 33.3755 142.95 30.2118 178.302C29.1147 184.702 29.329 191.259 30.8417 197.574C34.0143 213.495 44.3144 224.909 57.4806 231.631C92.1814 251.505 145.74 231.471 145.74 231.471C150.111 199.911 147.166 175.684 143.322 159.684Z" fill="#8482FF"/>
<path d="M121.297 126.961C121.297 126.961 142.175 153.737 136.571 214.346" stroke="#E6E6E6" stroke-width="1.34399" stroke-miterlimit="10" stroke-linecap="round"/>
<path d="M210.796 168.587C211.265 168.564 211.733 168.65 212.162 168.841C212.592 169.031 212.971 169.319 213.269 169.682C213.567 170.045 213.776 170.473 213.879 170.931C213.982 171.389 213.976 171.865 213.862 172.321L203.629 221.83C203.466 222.707 203.066 223.523 202.472 224.189C201.879 224.855 201.115 225.346 200.262 225.609L135.328 244.577C135.089 244.645 134.844 244.69 134.597 244.712C134.121 244.739 133.644 244.669 133.196 244.505C132.748 244.342 132.339 244.088 131.992 243.761C131.646 243.433 131.37 243.037 131.183 242.599C130.995 242.161 130.898 241.689 130.9 241.212L137.985 193.683C138.217 192.038 138.92 190.495 140.008 189.24C141.097 187.985 142.526 187.072 144.122 186.611L210.142 168.741C210.353 168.664 210.573 168.612 210.796 168.587Z" fill="#FEBEB0"/>
<path d="M209.085 167.599C208.687 167.437 208.256 167.37 207.828 167.405C207.598 167.421 207.371 167.464 207.151 167.534L141.131 185.404C139.534 185.865 138.106 186.778 137.017 188.033C135.928 189.288 135.226 190.831 134.994 192.476L127.915 240.004C127.92 240.705 128.131 241.389 128.523 241.971C128.914 242.552 129.468 243.005 130.116 243.273L133.084 244.455C132.436 244.188 131.881 243.735 131.489 243.154C131.098 242.572 130.887 241.888 130.883 241.186L137.969 193.658C138.2 192.012 138.903 190.469 139.992 189.215C141.081 187.96 142.509 187.047 144.105 186.585L210.126 168.715C210.754 168.517 211.431 168.538 212.046 168.775L209.085 167.599Z" fill="#FFB444"/>
<path d="M94.5649 209.753C94.5649 209.753 107.688 199.729 117.512 195.059C127.336 190.389 136.54 187.5 138.583 188.5C140.085 189.227 141.728 194.671 133.847 202.714C133.847 202.714 141.993 204.637 149.401 203.781C156.433 202.959 162.119 202.332 164.345 208.368C164.707 209.351 164.522 211.008 163.891 213.08C162.644 216.771 160.939 220.292 158.817 223.559C157.06 226.352 155.098 229.01 152.95 231.514C146.633 238.834 138.46 244.837 130.288 244.201C119.227 243.323 108.29 241.274 97.6611 238.088C97.6611 238.088 81.3368 235.281 94.5649 209.753Z" fill="#E9E9E9"/>
<path d="M152.928 216.182C151.044 216.396 149.148 216.487 147.252 216.455C147.161 216.453 147.071 216.433 146.988 216.396C146.905 216.359 146.83 216.306 146.767 216.24C146.641 216.107 146.572 215.929 146.577 215.745C146.582 215.561 146.659 215.387 146.792 215.26C146.926 215.134 147.104 215.065 147.287 215.07C147.369 215.061 155.6 215.283 161.886 212.629C161.969 212.594 162.059 212.576 162.149 212.575C162.239 212.575 162.329 212.592 162.412 212.626C162.496 212.661 162.572 212.711 162.636 212.775C162.7 212.838 162.751 212.914 162.786 212.997C162.821 213.08 162.839 213.17 162.84 213.26C162.84 213.35 162.823 213.44 162.789 213.523C162.754 213.607 162.704 213.683 162.64 213.747C162.577 213.811 162.501 213.862 162.418 213.897C159.377 215.099 156.183 215.868 152.928 216.182Z" fill="#FF9882"/>
<path d="M152.907 225.046C151.187 225.234 148.981 225.398 146.206 225.48C146.116 225.483 146.025 225.468 145.941 225.436C145.856 225.404 145.779 225.355 145.713 225.293C145.647 225.231 145.594 225.156 145.557 225.074C145.52 224.991 145.5 224.902 145.498 224.811C145.494 224.629 145.562 224.454 145.687 224.322C145.813 224.19 145.985 224.114 146.167 224.11C154.175 223.872 157.39 222.886 157.424 222.882C157.597 222.829 157.785 222.847 157.946 222.931C158.107 223.016 158.227 223.161 158.281 223.335C158.335 223.507 158.318 223.694 158.235 223.854C158.151 224.015 158.008 224.136 157.836 224.191C156.222 224.622 154.572 224.908 152.907 225.046Z" fill="#FF9882"/>
<path d="M143.119 233.035L141.324 233.23C141.143 233.25 140.961 233.197 140.819 233.083C140.678 232.969 140.587 232.803 140.567 232.622C140.547 232.441 140.6 232.26 140.714 232.118C140.828 231.976 140.994 231.885 141.175 231.865C148.699 231.183 151.071 230.192 151.09 230.183C151.257 230.11 151.447 230.106 151.616 230.172C151.786 230.239 151.923 230.37 151.996 230.537C152.069 230.704 152.073 230.893 152.006 231.063C151.94 231.233 151.809 231.369 151.642 231.442C151.548 231.466 149.481 232.341 143.119 233.035Z" fill="#FF9882"/>
<path d="M137.69 240.258C136.543 240.383 135.233 240.47 133.733 240.517C133.642 240.52 133.552 240.505 133.467 240.473C133.383 240.441 133.305 240.393 133.239 240.331C133.106 240.207 133.027 240.034 133.021 239.852C133.015 239.669 133.082 239.492 133.206 239.358C133.331 239.225 133.504 239.146 133.686 239.14C141.501 238.91 143.81 237.346 143.847 237.3C143.994 237.194 144.177 237.15 144.356 237.179C144.535 237.207 144.696 237.305 144.803 237.451C144.91 237.597 144.955 237.778 144.929 237.957C144.904 238.136 144.809 238.297 144.665 238.406C144.575 238.471 142.912 239.688 137.69 240.258Z" fill="#FF9882"/>
<path d="M52.5967 123.413C52.5967 123.413 23.1108 150.293 19.2173 204.229C19.2173 204.229 18.2402 218.772 27.5303 224.977C36.8204 231.183 67.0739 242.894 103.612 239.774C103.612 239.774 86.1732 233.013 94.5647 209.753C94.5647 209.753 71.583 204.108 64.6751 196.247C57.7672 188.387 72.8223 161.623 72.8223 161.623C72.8223 161.623 87.9114 87.7818 52.5967 123.413Z" fill="#8482FF"/>
<path d="M66.6287 159.998C66.6287 159.998 57.852 191.002 67.0528 198.226C70.415 200.871 76.5234 205.137 92.9367 209.329" stroke="#E6E6E6" stroke-width="1.34399" stroke-miterlimit="10" stroke-linecap="round"/>
<path d="M176.686 200.433C180.046 199.576 183.084 202.098 183.44 206.059C183.796 210.019 181.329 213.942 177.949 214.801C174.568 215.66 171.55 213.129 171.2 209.161C170.85 205.193 173.312 201.291 176.686 200.433Z" fill="#E9E9E9"/>
<path d="M213.588 174.023C213.588 174.023 237.988 193.252 209.938 221.136C209.938 221.136 196.327 230.674 188.022 221.654C188.022 221.654 182.895 211.948 191.498 201.333C192.855 199.235 194.75 197.54 196.986 196.424C200.406 194.912 208.617 189.63 210.517 186.156C212.418 182.681 213.588 174.023 213.588 174.023Z" fill="#E9E9E9"/>
<path d="M195.056 206.395C193.844 206.588 192.602 206.4 191.502 205.857C190.987 205.578 190.544 205.184 190.206 204.706C189.869 204.227 189.647 203.677 189.557 203.099C189.538 202.918 189.591 202.736 189.705 202.594C189.819 202.452 189.985 202.361 190.166 202.342C190.347 202.322 190.528 202.375 190.67 202.489C190.812 202.603 190.903 202.769 190.923 202.95C190.988 203.313 191.136 203.657 191.355 203.954C191.575 204.251 191.859 204.493 192.187 204.663C193.361 205.295 195.838 205.522 200.918 203.02C206.421 200.272 207.37 199.278 207.455 199.172C207.55 199.031 207.694 198.93 207.859 198.889C208.024 198.848 208.199 198.869 208.349 198.95C208.51 199.036 208.629 199.182 208.682 199.357C208.735 199.531 208.716 199.719 208.63 199.88C208.453 200.223 207.406 201.325 201.508 204.248C199.495 205.326 197.313 206.052 195.056 206.395Z" fill="#FF9882"/>
<path d="M193.771 213.622C188.31 214.218 186.484 210.141 186.479 210.093C186.407 209.926 186.404 209.737 186.471 209.568C186.538 209.399 186.669 209.263 186.836 209.191C187.003 209.119 187.192 209.116 187.361 209.183C187.531 209.25 187.666 209.382 187.739 209.549C187.822 209.74 189.813 214.006 196.494 211.55C201.752 209.596 203.102 208.799 203.102 208.799C203.255 208.707 203.438 208.679 203.612 208.72C203.785 208.761 203.936 208.868 204.033 209.018C204.129 209.168 204.163 209.35 204.127 209.525C204.092 209.7 203.99 209.854 203.843 209.955C203.788 209.961 202.463 210.796 196.98 212.837C195.947 213.23 194.869 213.493 193.771 213.622Z" fill="#FF9882"/>
<path d="M194.765 221.029C193.304 221.209 191.821 221.093 190.405 220.689C188.989 220.284 187.669 219.599 186.523 218.674C186.458 218.612 186.405 218.538 186.368 218.456C186.331 218.374 186.31 218.285 186.307 218.195C186.305 218.105 186.32 218.015 186.352 217.931C186.384 217.846 186.432 217.769 186.494 217.704C186.618 217.573 186.789 217.497 186.97 217.491C187.15 217.486 187.325 217.552 187.457 217.674C187.656 217.853 192.286 221.983 199.483 218.049C199.642 217.961 199.831 217.94 200.006 217.991C200.181 218.042 200.329 218.16 200.417 218.32C200.505 218.48 200.526 218.668 200.475 218.843C200.424 219.019 200.306 219.166 200.146 219.254C198.487 220.196 196.658 220.799 194.765 221.029Z" fill="#FF9882"/>
<path d="M109.225 68.2656C106.587 76.3171 108.028 84.0207 112.447 85.466C116.867 86.9113 123.952 81.131 126.46 73.0314C129.336 63.7382 126.41 57.7438 121.99 56.2985C117.571 54.8532 111.842 60.2094 109.225 68.2656Z" fill="#FFB444"/>
<path d="M126.47 73.0338C128.75 66.067 127.511 59.4082 123.701 58.161C119.892 56.9138 114.955 61.5504 112.674 68.5173C110.393 75.4841 111.632 82.1429 115.442 83.3901C119.251 84.6373 124.189 80.0006 126.47 73.0338Z" fill="#FEBEB0"/>
<path d="M103.927 88.9849L78.2074 79.7011L71.4986 103.697L69.8523 109.568C79.8933 116.071 92.5835 114.246 99.1075 111.49C103.016 109.834 103.354 107.483 103.354 107.483C101.497 102.864 103.927 88.9849 103.927 88.9849Z" fill="#E9E9E9"/>
<path d="M102.905 97.033C103.276 92.7721 103.927 88.985 103.927 88.985L78.2073 79.7012C78.2073 79.7012 81.0789 94.8262 102.905 97.033Z" fill="#44477B"/>
<path d="M100.7 90.6771C115.049 89.1127 125.33 75.4515 123.663 60.164C121.996 44.8764 109.013 33.7517 94.6644 35.3161C80.3156 36.8805 70.0348 50.5417 71.7015 65.8292C73.3683 81.1167 86.3515 92.2415 100.7 90.6771Z" fill="#E9E9E9"/>
<path d="M71.9792 56.7915C74.87 45.2932 83.2703 36.5582 94.0694 35.3808C108.623 33.794 121.941 46.5299 123.827 63.8276C123.926 64.7424 124.025 65.6503 124.029 66.5686L125.276 66.7986C125.388 64.6556 125.327 62.5071 125.094 60.3739C123.01 41.2603 107.887 27.2362 91.2859 29.0462C78.0975 30.4841 69.0921 36.6465 67.328 55.9448L71.9792 56.7915Z" fill="#FEBEB0"/>
<path d="M132.785 36.8853C131.91 28.8576 124.47 23.086 116.183 23.9896C114.702 24.1524 113.252 24.5245 111.875 25.0946C108.145 22.2835 103.624 20.7196 98.9547 20.6251C89.6718 20.5044 77.3693 25.9487 73.8334 44.328C73.5092 47.7122 73.6489 51.1248 74.2485 54.4712C74.2485 54.4712 80.9738 57.4887 86.324 50.3019C91.5419 43.2953 97.1658 42.4197 100.466 44.367C104.899 47.0127 107.747 53.2435 119.33 53.0512C119.869 53.105 120.412 53.0292 120.916 52.83C122.889 56.965 123.858 61.5077 123.743 66.088C130.606 58.149 131.074 49.7677 129.954 47.037C132.159 44.1386 133.172 40.5065 132.785 36.8853Z" fill="#44477B"/>
<path d="M81.7877 62.6776C83.1961 71.034 80.6178 78.4298 76.0384 79.1915C71.4589 79.9533 65.3056 73.1849 64.0329 64.8068C62.5688 55.1786 66.3579 49.7024 70.9427 48.9262C75.5275 48.15 80.3793 54.3213 81.7877 62.6776Z" fill="#FFB444"/>
<path d="M73.3934 76.7142C77.3464 76.049 79.5647 69.6494 78.3482 62.4204C77.1317 55.1914 72.941 49.8703 68.9881 50.5355C65.0351 51.2007 62.8167 57.6003 64.0332 64.8293C65.2497 72.0584 69.4404 77.3794 73.3934 76.7142Z" fill="#FEBEB0"/>
<path d="M103.007 62.3424C103.462 60.3458 102.998 58.5371 101.97 58.3027C100.942 58.0683 99.7396 59.4968 99.2842 61.4935C98.8289 63.4901 99.293 65.2987 100.321 65.5331C101.349 65.7676 102.551 64.339 103.007 62.3424Z" fill="#44477B"/>
<path d="M118.936 64.7879C119.397 62.7806 118.933 60.961 117.9 60.7237C116.866 60.4864 115.655 61.9212 115.194 63.9285C114.733 65.9358 115.197 67.7554 116.23 67.9927C117.264 68.23 118.475 66.7951 118.936 64.7879Z" fill="#44477B"/>
<path d="M89.4853 72.1377C88.3902 74.0669 90.1152 78.5482 95.2047 78.2834" stroke="#44477B" stroke-width="1.34399" stroke-miterlimit="10" stroke-linecap="round"/>
<path d="M109.111 65.5008L108.216 73.3209C108.19 73.5465 108.117 73.7644 108.003 73.9608C107.889 74.1572 107.736 74.3281 107.553 74.4627C107.37 74.5974 107.161 74.6929 106.94 74.7434C106.718 74.7939 106.489 74.7982 106.266 74.7561L104.432 74.4104" stroke="#44477B" stroke-width="1.34399" stroke-miterlimit="10" stroke-linecap="round"/>
</g>
<defs>
<filter id="filter0_d" x="5.67847" y="16.999" width="324.43" height="498.712" filterUnits="userSpaceOnUse" color-interpolation-filters="sRGB">
<feFlood flood-opacity="0" result="BackgroundImageFix"/>
<feColorMatrix in="SourceAlpha" type="matrix" values="0 0 0 0 0 0 0 0 0 0 0 0 0 0 0 0 0 0 127 0" result="hardAlpha"/>
<feOffset dy="4"/>
<feGaussianBlur stdDeviation="2"/>
<feColorMatrix type="matrix" values="0 0 0 0 0 0 0 0 0 0 0 0 0 0 0 0 0 0 0.25 0"/>
<feBlend mode="normal" in2="BackgroundImageFix" result="effect1_dropShadow"/>
<feBlend mode="normal" in="SourceGraphic" in2="effect1_dropShadow" result="shape"/>
</filter>
</defs>
</svg>
