<svg width="98" height="98" fill="none" xmlns="http://www.w3.org/2000/svg"><path opacity=".1" d="M98 49c0 27.062-21.938 49-49 49S0 76.062 0 49 21.938 0 49 0s49 21.938 49 49ZM4.966 49c0 24.32 19.715 44.034 44.034 44.034 24.32 0 44.034-19.715 44.034-44.034C93.034 24.68 73.319 4.966 49 4.966 24.68 4.966 4.966 24.681 4.966 49Z" fill="#FF9882"/><path d="M49 0A49 49 0 0 0 0 49h4.779A44.222 44.222 0 0 1 49 4.779V0ZM76.742 44.24c3.363 1.94 3.363 6.794 0 8.736l-36.75 21.218c-3.362 1.941-7.566-.486-7.566-4.369V27.39c0-3.883 4.204-6.31 7.566-4.368l36.75 21.217Z" fill="#FF9882"/></svg>