<svg width="33" height="32" fill="none" xmlns="http://www.w3.org/2000/svg"><path d="M6.864.246A5.89 5.89 0 0 0 .996 6.114v19.89a5.89 5.89 0 0 0 5.868 5.867h19.89a5.89 5.89 0 0 0 5.867-5.868V6.114A5.89 5.89 0 0 0 26.753.246H6.864Zm0 2.875h19.89a2.974 2.974 0 0 1 2.992 2.993v19.89a2.974 2.974 0 0 1-2.993 2.992H6.864a2.973 2.973 0 0 1-2.993-2.993V6.114a2.974 2.974 0 0 1 2.993-2.993Zm9.54 7.518c-1.056-.01-1.954 0-2.459.248-.338.163-.595.533-.438.55.197.029.64.124.877.444.301.41.291 1.337.291 1.337s.168 2.549-.41 2.87c-.399.218-.944-.226-2.123-2.253a19.107 19.107 0 0 1-1.055-2.195s-.086-.215-.241-.327c-.191-.139-.456-.185-.456-.185l-2.813.017s-.421.018-.572.197c-.141.168-.012.499-.012.499s2.201 5.15 4.694 7.744c2.285 2.382 4.88 2.224 4.88 2.224h1.179s.354-.04.533-.23c.17-.18.164-.518.164-.518s-.023-1.577.707-1.813c.725-.225 1.645 1.527 2.628 2.201.748.51 1.314.398 1.314.398l2.63-.038s1.369-.085.718-1.17c-.05-.082-.377-.796-1.948-2.256-1.652-1.527-1.432-1.28.555-3.924 1.207-1.612 1.69-2.595 1.538-3.022-.144-.398-1.032-.292-1.032-.292l-2.96.018s-.218-.03-.38.067a.828.828 0 0 0-.26.32s-.471 1.245-1.095 2.308c-1.314 2.234-1.847 2.357-2.06 2.218-.5-.327-.376-1.304-.376-1.994 0-2.174.33-3.072-.64-3.306-.32-.08-.556-.13-1.376-.137h-.001Z" fill="#8482FF"/></svg>